{"title":"The Mask of Zorro  (Western Adventure 1998)  Excellent quality i","uid":9294270,"size":649676902,"categoryP":"video","categoryS":"movies","magnet":"?xt=urn:btih:affcea95d665441b9495d7b27e0bdd7780acdd35&amp;dn=The+Mask+of+Zorro++%28Western+Adventure+1998%29++Excellent+quality+i&amp;tr=udp%3A%2F%2Ftracker.openbittorrent.com%3A80&amp;tr=udp%3A%2F%2Fopen.demonii.com%3A1337&amp;tr=udp%3A%2F%2Ftracker.coppersurfer.tk%3A6969&amp;tr=udp%3A%2F%2Fexodus.desync.com%3A6969","seeders":25,"leechers":5,"uploader":"BurtonW","files":13,"time":1386136895,"description":" &lt;a href=&quot;http://www.imdb.com/title/tt0120746/?ref_=nv_sr_1&quot; rel=&quot;nofollow&quot; target=&quot;_NEW&quot;&gt;http://www.imdb.com/title/tt0120746/?ref_=nv_sr_1&lt;/a&gt;\n\n\nSubtitles:  English.srt\n\n            Eng. for foreign lang. (only 2 phrases).srt\n\n\nStoryline:\n\n\n The original Zorro, Don Diego de la Vega, is captured and imprisoned just as Spain concedes California to Santa Anna. 20 years go by and his mortal enemy, Don Rafael Montero, returns to California with a plan to become wealthy at the expense of the peasants. The original Zorro escapes from prison and trains a new Zorro to take his place. Much swashbuckling and derring-do ensues.\n\n\nTechnical info:\n\n\nGeneral:\n\nComplete name   : The Mask of Zorro  (Western Adventure 1998)  Antonio Banderas, Anthony Hopkins &amp; Catherine Zeta-Jones.mp4\n\nFormat                                        : MPEG-4\nFormat profile                         : Base Media / Version 2\nCodec ID                                     : mp42\nFile size                                      : 619 MiB\nDuration                                    : 2h 17mn\nOverall bit rate mode          : Variable\nOverall bit rate                       : 629 Kbps\nMovie name                            : The Mask Of Zorro (1998)\nEncoded date                          : UTC 2013-12-01 04:14:48\nTagged date                             : UTC 2013-12-01 10:06:47\n\nVideo:\n\nID                             : 1\nFormat                         : AVC\nFormat/Info                    : Advanced Video Codec\nFormat profile                 : &lt;a class=&quot;__cf_email__&quot; href=&quot;/cdn-cgi/l/email-protection&quot; data-cfemail=&quot;6c210d05022c2058425c&quot;&gt;[email&amp;#160;protected]&lt;/a&gt;&lt;script cf-hash='f9e31' type=&quot;text/javascript&quot;&gt;\n/* &lt;![CDATA[ */!function(){try{var t=&quot;currentScript&quot;in document?document.currentScript:function(){for(var t=document.getElementsByTagName(&quot;script&quot;),e=t.length;e--;)if(t[e].getAttribute(&quot;cf-hash&quot;))return t[e]}();if(t&amp;&amp;t.previousSibling){var e,r,n,i,c=t.previousSibling,a=c.getAttribute(&quot;data-cfemail&quot;);if(a){for(e=&quot;&quot;,r=parseInt(a.substr(0,2),16),n=2;a.length-n;n+=2)i=parseInt(a.substr(n,2),16)^r,e+=String.fromCharCode(i);e=document.createTextNode(e),c.parentNode.replaceChild(e,c)}}}catch(u){}}();/* ]]&gt; */&lt;/script&gt;\nFormat settings, CABAC         : Yes\nFormat settings, ReFrames      : 16 frames\nCodec ID                       : avc1\nCodec ID/Info                  : Advanced Video Coding\nDuration                       : 2h 17mn\nBit rate mode                  : Variable\nBit rate                       : 464 Kbps\nWidth                          : 720 pixels\nHeight                         : 304 pixels\nDisplay aspect ratio           : 2.35:1\nFrame rate mode                : Variable\nFrame rate                     : 23.976 fps\nMinimum frame rate             : 23.810 fps\nMaximum frame rate             : 24.390 fps\nColor space                    : YUV\nChroma subsampling             : 4:2:0\nBit depth                      : 8 bits\nScan type                      : Progressive\nBits/(Pixel*Frame)             : 0.088\nStream size                    : 457 MiB (74%)\nWriting library                : x264 core 130 r2273 b3065e6\nEncoding settings              : Deleted\nEncoded date                   : UTC 2013-12-01 04:14:48\nTagged date                    : UTC 2013-12-01 10:06:47\nColor primaries                : BT.709\nTransfer characteristics       : BT.709\nMatrix coefficients            : BT.709\n\nAudio:\n\nID                             : 2\nFormat                         : AAC\nFormat/Info                    : Advanced Audio Codec\nFormat profile                 : LC\nCodec ID                       : 40\nDuration                       : 2h 17mn\nBit rate mode                  : Variable\nBit rate                       : 160 Kbps\nMaximum bit rate               : 294 Kbps\nChannel(s)                     : 2 channels\nChannel positions              : Front: L R\nSampling rate                  : 48.0 KHz\nCompression mode               : Lossy\nDelay relative to video        : 83ms\nStream size                    : 157 MiB (25%)\nLanguage                       : English\nEncoded date                   : UTC 2013-12-01 04:14:48\nTagged date                    : UTC 2013-12-01 10:06:46\n           ","torrent":{"xt":"urn:btih:affcea95d665441b9495d7b27e0bdd7780acdd35","amp;dn":"The+Mask+of+Zorro++%28Western+Adventure+1998%29++Excellent+quality+i","amp;tr":["udp%3A%2F%2Ftracker.openbittorrent.com%3A80","udp%3A%2F%2Fopen.demonii.com%3A1337","udp%3A%2F%2Ftracker.coppersurfer.tk%3A6969","udp%3A%2F%2Fexodus.desync.com%3A6969"],"infoHash":"affcea95d665441b9495d7b27e0bdd7780acdd35","infoHashBuffer":{"type":"Buffer","data":[175,252,234,149,214,101,68,27,148,149,215,178,126,11,221,119,128,172,221,53]},"announce":[],"urlList":[]}}